<?xml version="1.0" encoding="UTF-8"?>
<svg version="1.1" xmlns="http://www.w3.org/2000/svg" width="512" height="512">
<path d="M0 0 C5.03715781 3.23363285 9.44307102 7.28358418 13.92041016 11.23535156 C16.09552879 13.12859884 18.34094943 14.92504199 20.6015625 16.71484375 C25.94031687 20.94962306 31.20855199 25.26756304 36.4765625 29.58984375 C38.30966412 31.09012692 40.14299677 32.59012783 41.9765625 34.08984375 C52.9765625 43.08984375 63.9765625 52.08984375 74.9765625 61.08984375 C75.89050781 61.8375 76.80445313 62.58515625 77.74609375 63.35546875 C79.51479045 64.80281426 81.28304793 66.25069676 83.05078125 67.69921875 C88.51562671 72.1756542 93.99256895 76.63690775 99.4765625 81.08984375 C105.82177632 86.24208012 112.1544091 91.40932351 118.4765625 96.58984375 C120.30977898 98.08998656 122.14311396 99.58998457 123.9765625 101.08984375 C134.9765625 110.08984375 134.9765625 110.08984375 137.70703125 112.33203125 C139.59492187 113.87110146 141.4938981 115.39664929 143.40234375 116.91015625 C157.88497421 128.4727435 157.88497421 128.4727435 159.4765625 136.58984375 C160.16473304 144.00957341 159.60006884 150.47474809 155 156.53515625 C150.38386476 161.57285636 145.78280364 164.10911557 138.9921875 164.8671875 C129.0473361 165.24388642 122.84976233 160.76054747 115.4765625 154.58984375 C115.1465625 154.25984375 114.8165625 153.92984375 114.4765625 153.58984375 C114.1465625 161.83984375 113.8165625 170.08984375 113.4765625 178.58984375 C116.3626123 178.56889648 119.24866211 178.54794922 122.22216797 178.52636719 C131.78142826 178.45994579 141.34069901 178.41584792 150.90012932 178.38259506 C156.69330984 178.36176312 162.48625296 178.33352559 168.27929688 178.28808594 C173.8749333 178.24447178 179.47034205 178.22067363 185.06613541 178.21033478 C187.19587917 178.20297134 189.32561116 178.18859247 191.45525742 178.16692352 C194.44944471 178.13768282 197.44270353 178.13389639 200.43701172 178.13574219 C201.3080806 178.12136108 202.17914948 178.10697998 203.07661438 178.09216309 C211.45355097 178.14766473 219.35712899 180.68219391 225.4765625 186.58984375 C226.96069351 188.25782582 228.39712023 189.96919037 229.7890625 191.71484375 C230.94535156 193.16310547 230.94535156 193.16310547 232.125 194.640625 C232.90101563 195.61386719 233.67703125 196.58710938 234.4765625 197.58984375 C235.23195313 198.49089844 235.98734375 199.39195312 236.765625 200.3203125 C237.47460938 201.17238281 238.18359375 202.02445313 238.9140625 202.90234375 C239.55214844 203.66160156 240.19023437 204.42085937 240.84765625 205.203125 C244.62429872 210.73676661 244.81560318 216.1817249 244.7890625 222.65234375 C244.80517578 223.44189453 244.82128906 224.23144531 244.83789062 225.04492188 C244.84180377 229.71330167 244.51927151 232.81516229 241.4765625 236.58984375 C237.27477799 239.29766044 234.39053508 239.7200606 229.4765625 239.58984375 C229.48766556 240.48298279 229.49876862 241.37612183 229.51020813 242.29632568 C229.6103863 250.71263011 229.68651525 259.12873437 229.73562336 267.54549789 C229.76171935 271.872713 229.79711652 276.19943557 229.85375977 280.52636719 C229.90808088 284.70203746 229.93798302 288.87723396 229.95094872 293.05323029 C229.96018856 294.64650177 229.97823228 296.23974726 230.00521278 297.83281708 C230.04150742 300.06457059 230.04650812 302.29436611 230.04418945 304.52636719 C230.05529251 305.79655701 230.06639557 307.06674683 230.07783508 308.37542725 C229.4765625 311.58984375 229.4765625 311.58984375 227.16764832 314.03521729 C224.4765625 315.58984375 224.4765625 315.58984375 220.8515625 315.52734375 C216.35452422 314.27816645 216.35452422 314.27816645 214.4765625 311.58984375 C214.11579895 308.49568176 214.11579895 308.49568176 214.13598633 304.63989258 C214.13562472 303.92585361 214.13526312 303.21181463 214.13489056 302.47613811 C214.13712876 300.16609796 214.15996889 297.85678514 214.18359375 295.546875 C214.18800492 294.12024281 214.19106526 292.69360579 214.19274902 291.26696777 C214.20847404 285.97868569 214.25035776 280.69050757 214.2890625 275.40234375 C214.3509375 263.58421875 214.4128125 251.76609375 214.4765625 239.58984375 C181.1465625 239.58984375 147.8165625 239.58984375 113.4765625 239.58984375 C113.4765625 285.78984375 113.4765625 331.98984375 113.4765625 379.58984375 C146.8065625 379.58984375 180.1365625 379.58984375 214.4765625 379.58984375 C214.4765625 366.05984375 214.4765625 352.52984375 214.4765625 338.58984375 C218.4765625 334.58984375 218.4765625 334.58984375 221.9765625 334.08984375 C225.4765625 334.58984375 225.4765625 334.58984375 227.66395569 336.14442444 C230.10525509 339.43802384 230.03148172 342.27325894 229.97827148 346.21655273 C229.98637596 347.36117981 229.98637596 347.36117981 229.99464417 348.52893066 C230.00713875 351.04832903 229.99063494 353.56658609 229.97265625 356.0859375 C229.97281124 357.83944254 229.97430018 359.59294794 229.97706604 361.34645081 C229.97845041 365.02091625 229.96588708 368.69499154 229.94311523 372.36938477 C229.91475132 377.07494787 229.91746168 381.7798617 229.93020535 386.48547268 C229.93716763 390.10664902 229.92936663 393.72767584 229.91694832 397.34883308 C229.91243768 399.08354176 229.91209363 400.8182665 229.91601372 402.55297661 C229.91893082 404.98023112 229.90239515 407.40659801 229.88061523 409.83374023 C229.88736771 410.90541191 229.88736771 410.90541191 229.89425659 411.99873352 C229.82927702 416.36680128 229.3100498 419.21562726 226.4765625 422.58984375 C221.81435974 425.46466118 217.86756002 426.0191443 212.50857544 425.96736717 C211.72004456 425.97172749 210.93151369 425.97608782 210.11908793 425.98058027 C207.47260922 425.9915425 204.82665084 425.98111006 202.18017578 425.97079468 C200.26536352 425.97425085 198.35055325 425.97901515 196.43574715 425.98497641 C191.17050268 425.99752152 185.90542094 425.99130004 180.64017582 425.98201776 C174.96321054 425.97524199 169.28627364 425.98570118 163.60931396 425.99395752 C152.48677076 426.00731278 141.36428821 426.00440912 130.24174261 425.9957196 C121.203983 425.98895051 112.16624042 425.98802297 103.128479 425.99129105 C101.84325667 425.99175075 100.55803433 425.99221044 99.23386586 425.99268407 C96.62314144 425.99364323 94.01241703 425.99461587 91.40169263 425.99560185 C67.60678405 426.00391689 43.81191225 425.99528693 20.01700953 425.97957406 C-1.70807909 425.96533708 -23.43311496 425.96661096 -45.15820312 425.98095703 C-69.56269126 425.99701854 -93.9671435 426.00333697 -118.37163734 425.99412024 C-120.97287623 425.99316457 -123.57411511 425.99222146 -126.175354 425.99129105 C-127.45528697 425.99082822 -128.73521993 425.99036539 -130.05393875 425.98988854 C-139.08314653 425.98729588 -148.11233563 425.99167561 -157.14154053 425.99872971 C-168.14181474 426.00713461 -179.14202471 426.00488581 -190.14229155 425.98888747 C-195.75715134 425.98099119 -201.37190394 425.9779363 -206.986763 425.98783493 C-212.12368677 425.99675417 -217.26040367 425.99189472 -222.39730859 425.97590227 C-224.25859441 425.97254271 -226.11989761 425.9742748 -227.98117232 425.98152964 C-230.50618209 425.99061891 -233.03047824 425.98132946 -235.55545044 425.96736717 C-236.64585912 425.97790242 -236.64585912 425.97790242 -237.75829625 425.9886505 C-242.40471504 425.93710766 -245.57232386 425.02837271 -249.5234375 422.58984375 C-252.81963791 418.62616529 -252.89488227 415.28321815 -252.88420105 410.23100281 C-252.88676432 409.49985836 -252.8893276 408.76871392 -252.89196855 408.01541358 C-252.89690138 405.57084083 -252.88042226 403.12688869 -252.86401367 400.68237305 C-252.86316729 398.92796341 -252.86364276 397.1735527 -252.86534119 395.41914368 C-252.86620213 390.65916787 -252.84856029 385.89941873 -252.82761931 381.13949561 C-252.80886906 376.16403842 -252.80710337 371.18857606 -252.80354309 366.21308899 C-252.79421778 356.79255807 -252.76959738 347.37213156 -252.73949462 337.95164663 C-252.70596578 327.22623555 -252.68946841 316.50081949 -252.67440832 305.77536905 C-252.64304828 283.713469 -252.59027829 261.65166295 -252.5234375 239.58984375 C-253.44576172 239.52398071 -253.44576172 239.52398071 -254.38671875 239.45678711 C-255.19496094 239.38596924 -256.00320313 239.31515137 -256.8359375 239.2421875 C-257.63644531 239.17765381 -258.43695313 239.11312012 -259.26171875 239.04663086 C-262.77551295 238.33696884 -264.37834786 236.33823985 -266.5234375 233.58984375 C-269.48695901 227.66280073 -268.34109041 217.02582338 -266.828125 210.66796875 C-262.16670922 200.37832503 -251.04317308 187.70729615 -241.4609375 181.83984375 C-240.48447266 181.22882813 -240.48447266 181.22882813 -239.48828125 180.60546875 C-236.16150171 178.88586104 -233.07460791 178.46477747 -229.35992432 178.46958923 C-228.12741692 178.46752724 -228.12741692 178.46752724 -226.87001038 178.46542358 C-225.97736984 178.46901886 -225.08472931 178.47261414 -224.16503906 178.47631836 C-222.74501839 178.47609932 -222.74501839 178.47609932 -221.29631042 178.47587585 C-218.1688711 178.47657222 -215.04149142 178.48435177 -211.9140625 178.4921875 C-209.74501579 178.49405266 -207.57596867 178.4954761 -205.40692139 178.49647522 C-199.69902381 178.50029269 -193.99115168 178.51011644 -188.28326416 178.5211792 C-182.45837753 178.53140985 -176.63348678 178.53597639 -170.80859375 178.54101562 C-159.38019535 178.55173937 -147.95182253 178.56932997 -136.5234375 178.58984375 C-136.5234375 170.33984375 -136.5234375 162.08984375 -136.5234375 153.58984375 C-140.20953949 156.4525513 -140.20953949 156.4525513 -143.88134766 159.33349609 C-150.42054363 164.32434611 -156.51975894 165.3591896 -164.5234375 164.58984375 C-171.05022307 163.30089148 -175.53502055 159.84442481 -179.5234375 154.58984375 C-183.17442406 148.34950502 -183.43193737 141.45299013 -182.125 134.45703125 C-179.44884172 125.59442916 -171.11470829 120.10051633 -164.13671875 114.63671875 C-161.52733193 112.5928941 -158.95942049 110.50641973 -156.3984375 108.40234375 C-151.78420542 104.61815059 -147.15651993 100.85093152 -142.5234375 97.08984375 C-136.1781555 91.9376917 -129.84559047 86.77036364 -123.5234375 81.58984375 C-121.69022102 80.08970094 -119.85688604 78.58970293 -118.0234375 77.08984375 C-117.1159375 76.34734375 -116.2084375 75.60484375 -115.2734375 74.83984375 C-52.0234375 23.08984375 -52.0234375 23.08984375 -49.265625 20.8359375 C-47.45507023 19.35293324 -45.64770564 17.86602456 -43.84375 16.375 C-41.08239699 14.09788426 -38.30801991 11.83849711 -35.5234375 9.58984375 C-34.70576904 8.92855469 -34.70576904 8.92855469 -33.87158203 8.25390625 C-32.15916872 6.87658319 -30.43666755 5.51293006 -28.7109375 4.15234375 C-28.18387207 3.72703369 -27.65680664 3.30172363 -27.11376953 2.86352539 C-19.05357127 -3.4251588 -9.18801778 -4.5615424 0 0 Z M-17.0859375 16.02734375 C-17.78203125 16.57648437 -18.478125 17.125625 -19.1953125 17.69140625 C-19.96359375 18.31789063 -20.731875 18.944375 -21.5234375 19.58984375 C-22.37421875 20.27820313 -23.225 20.9665625 -24.1015625 21.67578125 C-26.91818279 23.96931491 -29.72143678 26.27848064 -32.5234375 28.58984375 C-34.35607769 30.09069053 -36.18940496 31.59069875 -38.0234375 33.08984375 C-38.9309375 33.83234375 -39.8384375 34.57484375 -40.7734375 35.33984375 C-93.0234375 78.08984375 -93.0234375 78.08984375 -95.79296875 80.35546875 C-97.56166545 81.80281426 -99.32992293 83.25069676 -101.09765625 84.69921875 C-107.25523438 89.7430944 -113.42973641 94.76580831 -119.60888672 99.78320312 C-125.2583801 104.37165145 -130.89393155 108.97689502 -136.5234375 113.58984375 C-138.35665398 115.08998656 -140.18998896 116.58998457 -142.0234375 118.08984375 C-142.92578125 118.82847656 -143.828125 119.56710938 -144.7578125 120.328125 C-146.6418456 121.86888088 -148.52732162 123.40787365 -150.4140625 124.9453125 C-152.28098089 126.46792217 -154.14319339 127.99632534 -156 129.53125 C-157.55371469 130.79875409 -159.12822024 132.04182803 -160.734375 133.2421875 C-164.08383075 135.81921774 -165.35503685 137.10148188 -166.7734375 141.21484375 C-166.84248095 144.69344384 -166.84248095 144.69344384 -164.4609375 147.08984375 C-160.70147894 149.00956727 -159.55550097 148.80135578 -155.5234375 147.58984375 C-152.59347712 145.65335189 -149.98299208 143.39241862 -147.3359375 141.08984375 C-145.8191152 139.80456383 -144.30218816 138.51940751 -142.78515625 137.234375 C-142.05345215 136.60740723 -141.32174805 135.98043945 -140.56787109 135.33447266 C-137.9592691 133.10840747 -135.31008121 130.93968921 -132.6484375 128.77734375 C-131.79507813 128.07996094 -130.94171875 127.38257813 -130.0625 126.6640625 C-128.80566406 125.63732422 -128.80566406 125.63732422 -127.5234375 124.58984375 C-125.68998714 123.08998679 -123.85665579 121.58998435 -122.0234375 120.08984375 C-67.0234375 75.08984375 -67.0234375 75.08984375 -64.25390625 72.82421875 C-62.48520955 71.37687324 -60.71695207 69.92899074 -58.94921875 68.48046875 C-52.7940366 63.43855572 -46.62313201 58.41630169 -40.44458008 53.40307617 C-37.40163058 50.9330624 -34.36085764 48.46082775 -31.3359375 45.96875 C-28.74064709 43.83123998 -26.13510184 41.70729428 -23.5234375 39.58984375 C-22.78480469 38.98011719 -22.04617187 38.37039062 -21.28515625 37.7421875 C-14.54333882 32.37158717 -14.54333882 32.37158717 -9.5234375 32.58984375 C-7.16657984 33.7956779 -5.54763175 34.92773597 -3.5234375 36.58984375 C-2.316875 37.55857422 -2.316875 37.55857422 -1.0859375 38.546875 C1.78465506 40.87515391 4.63124051 43.23077171 7.4765625 45.58984375 C9.30874393 47.09125053 11.14206041 48.59127337 12.9765625 50.08984375 C45.9765625 77.08984375 78.9765625 104.08984375 111.9765625 131.08984375 C113.32814453 132.19392578 113.32814453 132.19392578 114.70703125 133.3203125 C116.61008685 134.87979812 118.50827226 136.44523996 120.40234375 138.015625 C123.07781894 140.22768906 125.76960884 142.4164723 128.4765625 144.58984375 C129.0746875 145.08097656 129.6728125 145.57210937 130.2890625 146.078125 C132.90777396 148.06261728 134.33867025 148.58984375 137.6640625 148.58984375 C140.50488833 147.77313136 140.50488833 147.77313136 142.4140625 145.90234375 C143.88611206 142.69847117 143.38725807 140.96700649 142.4765625 137.58984375 C140.57099271 135.22116897 140.57099271 135.22116897 138.0390625 133.21484375 C137.1315625 132.44398438 136.2240625 131.673125 135.2890625 130.87890625 C134.3609375 130.12351562 133.4328125 129.368125 132.4765625 128.58984375 C131.2390625 127.58050781 131.2390625 127.58050781 129.9765625 126.55078125 C128.3369884 125.23176491 126.69100833 123.92067601 125.0390625 122.6171875 C120.46929221 119.00177472 115.98122092 115.28581174 111.4765625 111.58984375 C109.64346088 110.08956058 107.81012823 108.58955967 105.9765625 107.08984375 C102.30989583 104.08984375 98.64322917 101.08984375 94.9765625 98.08984375 C94.06261719 97.3421875 93.14867187 96.59453125 92.20703125 95.82421875 C90.43833455 94.37687324 88.67007707 92.92899074 86.90234375 91.48046875 C81.43749829 87.0040333 75.96055605 82.54277975 70.4765625 78.08984375 C64.13134868 72.93760738 57.7987159 67.77036399 51.4765625 62.58984375 C49.64334602 61.08970094 47.81001104 59.58970293 45.9765625 58.08984375 C34.9765625 49.08984375 23.9765625 40.08984375 12.9765625 31.08984375 C12.07550781 30.35378906 11.17445313 29.61773437 10.24609375 28.859375 C8.34303815 27.29988938 6.44485274 25.73444754 4.55078125 24.1640625 C-5.35795335 14.40005846 -5.35795335 14.40005846 -17.0859375 16.02734375 Z M-19.0234375 56.08984375 C-20.29968926 57.20177544 -21.57703765 58.31244967 -22.85546875 59.421875 C-23.79640381 60.23906006 -23.79640381 60.23906006 -24.75634766 61.07275391 C-27.80436362 63.68955015 -30.95118226 66.17649157 -34.1015625 68.66796875 C-38.62005491 72.25361111 -43.06412458 75.93108069 -47.5234375 79.58984375 C-49.35653912 81.09012692 -51.18987177 82.59012783 -53.0234375 84.08984375 C-53.9309375 84.83234375 -54.8384375 85.57484375 -55.7734375 86.33984375 C-97.0234375 120.08984375 -97.0234375 120.08984375 -99.76171875 122.328125 C-101.63689099 123.86380354 -103.50919364 125.40299143 -105.37890625 126.9453125 C-106.31347656 127.71488281 -107.24804688 128.48445313 -108.2109375 129.27734375 C-109.45423828 130.30408203 -109.45423828 130.30408203 -110.72265625 131.3515625 C-113.5234375 133.58984375 -113.5234375 133.58984375 -115.51312971 134.73519957 C-118.71389023 136.70635564 -121.09269227 138.23102087 -122.25984287 141.91289783 C-122.53400408 144.82272587 -122.55138946 147.63937164 -122.48547363 150.56161499 C-122.49230903 151.66930068 -122.49914443 152.77698636 -122.50618696 153.91823828 C-122.51937041 157.63192777 -122.475359 161.34272912 -122.43164062 165.05615234 C-122.42938413 167.71716832 -122.43029804 170.37800714 -122.43518066 173.03900146 C-122.43937233 178.76867981 -122.41430782 184.49762847 -122.36927795 190.22712326 C-122.30421608 198.51084302 -122.28342198 206.79421053 -122.27337402 215.0781581 C-122.2558719 228.51861393 -122.20265171 241.958681 -122.12695312 255.39892578 C-122.05350273 268.45359351 -121.99688444 281.50815559 -121.96289062 294.56298828 C-121.96078884 295.36790075 -121.95868705 296.17281321 -121.95652157 297.00211696 C-121.94608115 301.04019173 -121.93597151 305.07826725 -121.92602634 309.11634326 C-121.84311408 342.6078037 -121.70002412 376.09874882 -121.5234375 409.58984375 C-111.6234375 409.58984375 -101.7234375 409.58984375 -91.5234375 409.58984375 C-91.3536383 403.98181608 -91.3536383 403.98181608 -91.22558594 398.37280273 C-90.99443372 392.98634775 -90.29366002 388.62135238 -86.5234375 384.58984375 C-84.08416748 383.18138123 -84.08416748 383.18138123 -81.36230469 381.88842773 C-80.45744324 381.45344467 -79.55258179 381.01846161 -78.62030029 380.57029724 C-77.92833557 380.24674759 -77.23637085 379.92319794 -76.5234375 379.58984375 C-76.52201248 378.65182922 -76.52058746 377.7138147 -76.51911926 376.74737549 C-76.50237417 367.8623289 -76.45937303 358.97773591 -76.39134693 350.09292984 C-76.3572077 345.52624326 -76.33198744 340.95988658 -76.32788086 336.39306641 C-76.32356966 331.97718097 -76.29487595 327.56203808 -76.25000572 323.14638519 C-76.23712017 321.47053113 -76.23269095 319.7945878 -76.23728371 318.11869049 C-76.26441507 305.19994079 -74.80470945 294.04070168 -65.3984375 284.26953125 C-55.08359996 275.02915596 -43.41541198 274.11988618 -30.09375 274.15625 C-28.61221073 274.15167645 -27.13067357 274.14636744 -25.6491394 274.1403656 C-22.5578342 274.13148007 -19.46678794 274.13380452 -16.37548828 274.14379883 C-12.44638241 274.15527438 -8.51817725 274.13507622 -4.58918953 274.10588169 C-1.5330554 274.08738733 1.52286819 274.08783834 4.57904434 274.09351921 C6.02608629 274.09367086 7.47314398 274.08775834 8.92013168 274.07522774 C21.0861446 273.98469797 31.95044943 275.50248702 41.5078125 283.60546875 C48.91642345 291.0728782 52.93077075 300.04896271 52.90893555 310.56640625 C52.92422302 311.69469597 52.92422302 311.69469597 52.93981934 312.84577942 C52.96972286 315.30221218 52.97918008 317.75825361 52.98828125 320.21484375 C53.00514481 321.92978183 53.02329729 323.64470767 53.04267883 325.35961914 C53.09000308 329.85085222 53.11992575 334.34203567 53.14611816 338.83343506 C53.17601279 343.42551468 53.22251237 348.01742364 53.26757812 352.609375 C53.35341103 361.60277498 53.4208449 370.59621027 53.4765625 379.58984375 C54.16852722 379.9133934 54.86049194 380.23694305 55.57342529 380.57029724 C56.93071747 381.22277184 56.93071747 381.22277184 58.31542969 381.88842773 C59.66275177 382.52843971 59.66275177 382.52843971 61.03729248 383.18138123 C64.67049027 385.27923136 66.29243793 387.60965096 67.4765625 391.58984375 C68.01765081 394.74779442 68.16888597 397.82776786 68.2265625 401.02734375 C68.3090625 403.85296875 68.3915625 406.67859375 68.4765625 409.58984375 C78.3765625 409.58984375 88.2765625 409.58984375 98.4765625 409.58984375 C98.70266233 375.32972131 98.88167715 341.0698602 98.98721579 306.80915341 C98.99972275 302.76371821 99.01266598 298.71828451 99.02587891 294.67285156 C99.02850201 293.86748406 99.03112511 293.06211655 99.03382771 292.23234397 C99.07733248 279.19453031 99.15617288 266.15715791 99.24809046 253.11960596 C99.34163061 239.74024804 99.39715531 226.36112109 99.41744745 212.9814496 C99.43116418 204.72622484 99.47447084 196.47224725 99.55572717 188.21740645 C99.60861873 182.55546971 99.6245571 176.89417695 99.61157627 171.23201114 C99.60517439 167.96531655 99.62040581 164.70125648 99.66861725 161.43484879 C99.71839039 157.88887097 99.70641875 154.34822543 99.67910767 150.80212402 C99.70823608 149.77487072 99.73736449 148.74761741 99.76737559 147.68923521 C99.67312928 143.16190066 99.41726761 140.60846936 96.27521205 137.20615101 C93.75295668 135.17357591 91.18640394 133.36113073 88.4765625 131.58984375 C86.66065475 130.11486262 84.84738488 128.63661476 83.0390625 127.15234375 C82.12253906 126.40082031 81.20601562 125.64929688 80.26171875 124.875 C79.34261719 124.12089844 78.42351562 123.36679688 77.4765625 122.58984375 C75.64346088 121.08956058 73.81012823 119.58955967 71.9765625 118.08984375 C49.9765625 100.08984375 27.9765625 82.08984375 5.9765625 64.08984375 C5.08066406 63.35894531 4.18476563 62.62804687 3.26171875 61.875 C1.30291903 60.26785016 -0.64682593 58.64963204 -2.58984375 57.0234375 C-3.57855469 56.19972656 -4.56726563 55.37601563 -5.5859375 54.52734375 C-6.48441406 53.77324219 -7.38289063 53.01914063 -8.30859375 52.2421875 C-12.967417 48.76655746 -15.3954784 52.88213002 -19.0234375 56.08984375 Z M-246.8359375 209.46484375 C-247.82013672 210.60566406 -247.82013672 210.60566406 -248.82421875 211.76953125 C-250.44776552 214.46424566 -251.00373285 216.23830883 -251.62963867 219.26611328 C-251.79993088 220.07597687 -251.97022308 220.88584045 -252.14567566 221.72024536 C-252.27033707 222.33721283 -252.39499847 222.9541803 -252.5234375 223.58984375 C-251.29713623 223.6148999 -250.07083496 223.63995605 -248.80737305 223.66577148 C-244.2618548 223.75987429 -239.71648833 223.86008808 -235.17114258 223.9621582 C-233.20307971 224.00549616 -231.23497952 224.04717207 -229.2668457 224.0871582 C-226.4395014 224.1448882 -223.61234479 224.20857491 -220.78515625 224.2734375 C-219.46314461 224.29850624 -219.46314461 224.29850624 -218.11442566 224.32408142 C-216.8834893 224.35399925 -216.8834893 224.35399925 -215.62768555 224.38452148 C-214.90598679 224.40006577 -214.18428802 224.41561005 -213.4407196 224.43162537 C-211.5234375 224.58984375 -211.5234375 224.58984375 -208.5234375 225.58984375 C-208.41518907 227.19252195 -208.33773105 228.79730123 -208.2734375 230.40234375 C-208.22703125 231.29566406 -208.180625 232.18898438 -208.1328125 233.109375 C-208.5234375 235.58984375 -208.5234375 235.58984375 -212.5234375 238.58984375 C-224.8984375 239.08484375 -224.8984375 239.08484375 -237.5234375 239.58984375 C-237.5234375 285.78984375 -237.5234375 331.98984375 -237.5234375 379.58984375 C-204.1934375 379.58984375 -170.8634375 379.58984375 -136.5234375 379.58984375 C-136.5234375 333.38984375 -136.5234375 287.18984375 -136.5234375 239.58984375 C-151.7034375 239.25984375 -166.8834375 238.92984375 -182.5234375 238.58984375 C-186.5234375 235.58984375 -186.5234375 235.58984375 -186.9140625 233.109375 C-186.86765625 232.21605469 -186.82125 231.32273437 -186.7734375 230.40234375 C-186.73734375 229.50128906 -186.70125 228.60023438 -186.6640625 227.671875 C-186.61765625 226.98480469 -186.57125 226.29773438 -186.5234375 225.58984375 C-183.68381329 224.64330235 -181.81937221 224.43990151 -178.8684082 224.38452148 C-177.45728508 224.35460365 -177.45728508 224.35460365 -176.01765442 224.32408142 C-175.00507065 224.30736893 -173.99248688 224.29065643 -172.94921875 224.2734375 C-171.91024948 224.2526564 -170.87128021 224.23187531 -169.80082703 224.21046448 C-166.47926497 224.14503719 -163.15762334 224.08611554 -159.8359375 224.02734375 C-157.5852782 223.98415206 -155.33462698 223.94053756 -153.08398438 223.89648438 C-147.56388249 223.78856648 -142.0437209 223.68944195 -136.5234375 223.58984375 C-136.5234375 214.01984375 -136.5234375 204.44984375 -136.5234375 194.58984375 C-148.69315506 194.52207783 -160.86274738 194.46703321 -173.03261089 194.43440723 C-178.68351436 194.41874874 -184.33428208 194.39750688 -189.98510742 194.36352539 C-195.43806608 194.33093885 -200.89089413 194.31299212 -206.34394264 194.30521202 C-208.42477283 194.29966727 -210.50559585 194.28883982 -212.58637047 194.27265358 C-215.50003911 194.25088892 -218.4131675 194.24787645 -221.3269043 194.24926758 C-222.18789734 194.23848175 -223.04889038 194.22769592 -223.93597412 194.21658325 C-234.72641825 194.27236102 -240.21659445 201.75426843 -246.8359375 209.46484375 Z M113.4765625 194.58984375 C113.4765625 204.15984375 113.4765625 213.72984375 113.4765625 223.58984375 C151.7565625 223.58984375 190.0365625 223.58984375 229.4765625 223.58984375 C227.73609718 215.7577498 226.72351293 212.74801084 221.6640625 207.33984375 C220.88192383 206.46199219 220.88192383 206.46199219 220.08398438 205.56640625 C218.57232279 203.88300783 217.03277899 202.23203624 215.4765625 200.58984375 C214.58582031 199.64625 213.69507813 198.70265625 212.77734375 197.73046875 C208.54089731 193.78891926 203.96959937 194.45369726 198.50708008 194.47631836 C197.58980637 194.47617233 196.67253265 194.47602631 195.72746277 194.47587585 C192.69198247 194.47657318 189.65656334 194.48435719 186.62109375 194.4921875 C184.51787856 194.49405232 182.41466293 194.49547592 180.31144714 194.49647522 C174.77286584 194.50029536 169.2343107 194.51012138 163.69573975 194.5211792 C158.04521031 194.53140411 152.39467665 194.53597516 146.74414062 194.54101562 C135.65493456 194.55174408 124.5657548 194.56933684 113.4765625 194.58984375 Z M-53.5234375 294.58984375 C-62.4275033 304.12991425 -61.80927523 314.95978956 -61.71875 327.34375 C-61.71501301 328.85546175 -61.71216929 330.36717594 -61.71017456 331.87889099 C-61.70259203 335.82934429 -61.68299076 339.77964707 -61.6607666 343.7300415 C-61.63656439 348.48505799 -61.62750153 353.24012521 -61.61585999 357.99518585 C-61.59656242 365.19350936 -61.55820276 372.39150358 -61.5234375 379.58984375 C-47.6634375 379.58984375 -33.8034375 379.58984375 -19.5234375 379.58984375 C-19.5234375 349.88984375 -19.5234375 320.18984375 -19.5234375 289.58984375 C-41.80911872 287.80098937 -41.80911872 287.80098937 -53.5234375 294.58984375 Z M-3.5234375 289.58984375 C-3.5234375 319.28984375 -3.5234375 348.98984375 -3.5234375 379.58984375 C10.3365625 379.58984375 24.1965625 379.58984375 38.4765625 379.58984375 C38.53481001 367.72364223 38.53481001 367.72364223 38.57421875 355.85742188 C38.58613787 351.01208065 38.60018278 346.16681558 38.62744141 341.3215332 C38.64929765 337.41171882 38.66115787 333.5019862 38.66631699 329.5921154 C38.66998993 328.10630953 38.67716181 326.62050773 38.68802261 325.13473701 C38.82269825 308.46787171 38.82269825 308.46787171 30.4765625 294.58984375 C18.76224372 287.80098937 18.76224372 287.80098937 -3.5234375 289.58984375 Z M-237.5234375 395.58984375 C-237.5234375 400.20984375 -237.5234375 404.82984375 -237.5234375 409.58984375 C-204.1934375 409.58984375 -170.8634375 409.58984375 -136.5234375 409.58984375 C-136.5234375 404.96984375 -136.5234375 400.34984375 -136.5234375 395.58984375 C-169.8534375 395.58984375 -203.1834375 395.58984375 -237.5234375 395.58984375 Z M-75.5234375 395.58984375 C-77.61575148 399.7744717 -76.5234375 404.91128747 -76.5234375 409.58984375 C-33.6234375 409.58984375 9.2765625 409.58984375 53.4765625 409.58984375 C54.02271949 402.34287959 54.02271949 402.34287959 52.4765625 395.58984375 C10.2365625 395.58984375 -32.0034375 395.58984375 -75.5234375 395.58984375 Z M113.4765625 395.58984375 C113.4765625 400.20984375 113.4765625 404.82984375 113.4765625 409.58984375 C146.8065625 409.58984375 180.1365625 409.58984375 214.4765625 409.58984375 C214.4765625 404.96984375 214.4765625 400.34984375 214.4765625 395.58984375 C181.1465625 395.58984375 147.8165625 395.58984375 113.4765625 395.58984375 Z " fill="#000000" transform="translate(267.5234375,44.41015625)"/>
<path d="M0 0 C1.11681152 -0.00700928 2.23362305 -0.01401855 3.38427734 -0.02124023 C7.04811019 -0.03873621 10.71116033 -0.02722659 14.375 -0.01367188 C16.9375015 -0.01636918 19.50000199 -0.02025359 22.0625 -0.02526855 C27.42198416 -0.03115228 32.78119204 -0.02302295 38.140625 -0.00390625 C44.31310775 0.01785802 50.48506178 0.01080487 56.65753174 -0.01121187 C62.62589868 -0.03163832 68.59410317 -0.02936546 74.5625 -0.01768494 C77.08854243 -0.01502601 79.61459846 -0.01825788 82.140625 -0.02760315 C85.67744137 -0.03781794 89.21325766 -0.02219713 92.75 0 C93.78302246 -0.00809692 94.81604492 -0.01619385 95.88037109 -0.02453613 C104.85308936 0.07922899 113.22191874 2.36526535 119.8359375 8.72851562 C125.47045215 15.27828138 126.81465314 21.37471808 126.875 29.83007812 C126.88136475 30.60706055 126.88772949 31.38404297 126.89428711 32.18457031 C126.79299617 36.71183471 126.43663796 39.95647804 123.375 43.51757812 C119.19874188 45.97567985 116.13029359 46.89324767 111.30297852 46.89852905 C110.10859161 46.90698853 108.91420471 46.915448 107.68362427 46.92416382 C106.38681732 46.91809113 105.09001038 46.91201843 103.75390625 46.90576172 C102.36375517 46.90983025 100.97360733 46.91517371 99.58346558 46.92169189 C95.8189942 46.93533796 92.0547702 46.93007816 88.29029465 46.92055464 C84.34529722 46.91294395 80.40032055 46.92000756 76.45532227 46.92471313 C69.83117888 46.93016659 63.20713594 46.92298987 56.58300781 46.90869141 C48.93145861 46.89236563 41.28014924 46.89765444 33.62860584 46.91417062 C27.05177925 46.92779721 20.47502474 46.92969943 13.89818859 46.92185462 C9.97335569 46.91718453 6.04863542 46.9165349 2.12380981 46.92646408 C-1.56661039 46.9351486 -5.25672223 46.92908503 -8.94710922 46.91178131 C-10.94260996 46.90594111 -12.93813686 46.91481934 -14.93362427 46.92416382 C-16.12801117 46.91570435 -17.32239807 46.90724487 -18.55297852 46.89852905 C-19.58681168 46.89739798 -20.62064484 46.8962669 -21.68580627 46.89510155 C-26.14324548 46.32256776 -29.52801722 44.79351784 -32.46875 41.37304688 C-34.04917292 37.47004298 -34.15922688 34.00835645 -34.125 29.83007812 C-34.11927979 29.02860352 -34.11355957 28.22712891 -34.10766602 27.40136719 C-33.85692439 19.06357481 -31.51240958 12.98715938 -25.4375 7.14257812 C-17.55999747 1.31235638 -9.60815455 -0.07530959 0 0 Z M-15.625 20.51757812 C-18.19373679 23.90327319 -18.19373679 23.90327319 -18.625 30.51757812 C24.275 30.51757812 67.175 30.51757812 111.375 30.51757812 C109.56471553 22.53510933 109.56471553 22.53510933 104.375 17.51757812 C102.00663073 16.33339349 100.56538117 16.38424109 97.9229126 16.3704071 C96.98644897 16.3632518 96.04998535 16.3560965 95.08514404 16.34872437 C93.5391452 16.34469101 93.5391452 16.34469101 91.96191406 16.34057617 C90.87885986 16.33400497 89.79580566 16.32743378 88.67993164 16.32066345 C85.08349545 16.30089758 81.48710108 16.28926043 77.890625 16.27929688 C76.05113911 16.27318358 76.05113911 16.27318358 74.17449188 16.26694679 C68.35351897 16.24822605 62.53256256 16.23366373 56.71156526 16.22533482 C50.66403863 16.21653864 44.61676302 16.19725204 38.56933594 16.16088867 C32.08310866 16.12250532 25.59710794 16.10365244 19.11077118 16.09913063 C16.63722241 16.09425437 14.16367743 16.08261102 11.69019318 16.06409264 C8.22841531 16.03978658 4.76750085 16.04065113 1.30566406 16.04760742 C0.28309509 16.03479736 -0.73947388 16.0219873 -1.79302979 16.00878906 C-7.71979129 16.0522126 -11.12721109 16.54236895 -15.625 20.51757812 Z " fill="#000000" transform="translate(209.625,257.482421875)"/>
<path d="M0 0 C10.42202364 9.61839772 16.30958483 21.97999035 16.89257812 36.05493164 C17.1463929 51.63557228 13.26523052 63.80552003 2.375 75.4375 C-9.32973815 85.72552633 -21.62345432 89.96595567 -37.0703125 89.68359375 C-49.49745323 88.82325324 -62.13959487 83.83003085 -70.625 74.4375 C-82.10951955 60.12602179 -85.32099423 46.61840973 -83.625 28.4375 C-82.06291371 19.75821583 -77.98217038 13.30892994 -72.625 6.4375 C-72.026875 5.550625 -71.42875 4.66375 -70.8125 3.75 C-51.85995271 -16.28555 -21.24185095 -16.2121713 0 0 Z M-60.34375 16.54296875 C-61.91655492 18.78267379 -63.30014871 21.04368769 -64.625 23.4375 C-64.96660156 24.04078125 -65.30820313 24.6440625 -65.66015625 25.265625 C-69.04298359 32.50330211 -68.77542806 41.77393677 -66.8984375 49.3828125 C-65.96555928 51.86290337 -64.9081686 54.12102072 -63.625 56.4375 C-63.28597656 57.07042969 -62.94695312 57.70335937 -62.59765625 58.35546875 C-57.88286122 65.95618814 -49.65910424 70.85704565 -41.125 73.00390625 C-32.51279384 74.49758576 -24.11642691 73.62510947 -16.46484375 69.18359375 C-8.4076491 63.486117 -1.85285991 56.23217405 0.375 46.4375 C1.32560559 37.35284659 0.83725658 29.49312491 -3.625 21.4375 C-3.96402344 20.80457031 -4.30304688 20.17164063 -4.65234375 19.51953125 C-9.10961291 12.33396922 -17.16022519 7.14500699 -25.21875 4.875 C-38.33409354 2.49039208 -51.7194527 5.97820455 -60.34375 16.54296875 Z " fill="#000000" transform="translate(289.625,149.5625)"/>
<path d="M0 0 C1.73050598 -0.00430527 1.73050598 -0.00430527 3.49597168 -0.00869751 C5.93009941 -0.01073494 8.36424363 -0.00522765 10.79833984 0.00732422 C14.51827705 0.0233815 18.23712773 0.00746362 21.95703125 -0.01171875 C24.32552322 -0.00973626 26.69401453 -0.00589247 29.0625 0 C30.17202026 -0.00607269 31.28154053 -0.01214539 32.42468262 -0.0184021 C42.49322637 0.07303628 42.49322637 0.07303628 47.03125 3.3984375 C49.92285188 7.31003727 50.40939803 10.12552992 50.41943359 14.9453125 C50.42889008 16.25016602 50.43834656 17.55501953 50.4480896 18.89941406 C50.44271959 20.31575831 50.43656656 21.73209978 50.4296875 23.1484375 C50.43170992 24.60905096 50.43462276 26.06966343 50.43838501 27.53027344 C50.44280049 30.58668665 50.43640262 33.64283626 50.42236328 36.69921875 C50.40527153 40.60997501 50.41511692 44.52011355 50.43308067 48.43084717 C50.4439397 51.4455223 50.44046253 54.46005184 50.4326973 57.47473145 C50.43070113 58.91638259 50.43313403 60.3580471 50.44013596 61.79968262 C50.44778443 63.81697322 50.43405294 65.83431038 50.41943359 67.8515625 C50.41704681 68.99786133 50.41466003 70.14416016 50.41220093 71.32519531 C49.98559197 74.7667741 49.08029365 76.6266041 47.03125 79.3984375 C41.57534504 83.39644952 35.54263344 82.83234246 29.0625 82.796875 C27.90882935 82.79974518 26.75515869 82.80261536 25.56652832 82.80557251 C23.13240059 82.80760994 20.69825637 82.80210265 18.26416016 82.78955078 C14.54422295 82.7734935 10.82537227 82.78941138 7.10546875 82.80859375 C4.73697678 82.80661126 2.36848547 82.80276747 0 82.796875 C-1.10952026 82.80294769 -2.21904053 82.80902039 -3.36218262 82.8152771 C-13.43072637 82.72383872 -13.43072637 82.72383872 -17.96875 79.3984375 C-20.86035188 75.48683773 -21.34689803 72.67134508 -21.35693359 67.8515625 C-21.36639008 66.54670898 -21.37584656 65.24185547 -21.3855896 63.89746094 C-21.38021959 62.48111669 -21.37406656 61.06477522 -21.3671875 59.6484375 C-21.36920992 58.18782404 -21.37212276 56.72721157 -21.37588501 55.26660156 C-21.38030049 52.21018835 -21.37390262 49.15403874 -21.35986328 46.09765625 C-21.34277153 42.18689999 -21.35261692 38.27676145 -21.37058067 34.36602783 C-21.3814397 31.3513527 -21.37796253 28.33682316 -21.3701973 25.32214355 C-21.36820113 23.88049241 -21.37063403 22.4388279 -21.37763596 20.99719238 C-21.38528443 18.97990178 -21.37155294 16.96256462 -21.35693359 14.9453125 C-21.35454681 13.79901367 -21.35216003 12.65271484 -21.34970093 11.47167969 C-20.92309197 8.0301009 -20.01779365 6.1702709 -17.96875 3.3984375 C-12.51284504 -0.59957452 -6.48013344 -0.03546746 0 0 Z M-5.96875 16.3984375 C-5.96875 32.8984375 -5.96875 49.3984375 -5.96875 66.3984375 C7.56125 66.3984375 21.09125 66.3984375 35.03125 66.3984375 C35.03125 49.8984375 35.03125 33.3984375 35.03125 16.3984375 C21.50125 16.3984375 7.97125 16.3984375 -5.96875 16.3984375 Z " fill="#000000" transform="translate(416.96875,312.6015625)"/>
<path d="M0 0 C1.73050598 -0.00430527 1.73050598 -0.00430527 3.49597168 -0.00869751 C5.93009941 -0.01073494 8.36424363 -0.00522765 10.79833984 0.00732422 C14.51827705 0.0233815 18.23712773 0.00746362 21.95703125 -0.01171875 C24.32552322 -0.00973626 26.69401453 -0.00589247 29.0625 0 C30.17202026 -0.00607269 31.28154053 -0.01214539 32.42468262 -0.0184021 C42.49322637 0.07303628 42.49322637 0.07303628 47.03125 3.3984375 C49.92285188 7.31003727 50.40939803 10.12552992 50.41943359 14.9453125 C50.42889008 16.25016602 50.43834656 17.55501953 50.4480896 18.89941406 C50.44271959 20.31575831 50.43656656 21.73209978 50.4296875 23.1484375 C50.43170992 24.60905096 50.43462276 26.06966343 50.43838501 27.53027344 C50.44280049 30.58668665 50.43640262 33.64283626 50.42236328 36.69921875 C50.40527153 40.60997501 50.41511692 44.52011355 50.43308067 48.43084717 C50.4439397 51.4455223 50.44046253 54.46005184 50.4326973 57.47473145 C50.43070113 58.91638259 50.43313403 60.3580471 50.44013596 61.79968262 C50.44778443 63.81697322 50.43405294 65.83431038 50.41943359 67.8515625 C50.41704681 68.99786133 50.41466003 70.14416016 50.41220093 71.32519531 C49.98559197 74.7667741 49.08029365 76.6266041 47.03125 79.3984375 C41.57534504 83.39644952 35.54263344 82.83234246 29.0625 82.796875 C27.90882935 82.79974518 26.75515869 82.80261536 25.56652832 82.80557251 C23.13240059 82.80760994 20.69825637 82.80210265 18.26416016 82.78955078 C14.54422295 82.7734935 10.82537227 82.78941138 7.10546875 82.80859375 C4.73697678 82.80661126 2.36848547 82.80276747 0 82.796875 C-1.10952026 82.80294769 -2.21904053 82.80902039 -3.36218262 82.8152771 C-13.43072637 82.72383872 -13.43072637 82.72383872 -17.96875 79.3984375 C-20.86035188 75.48683773 -21.34689803 72.67134508 -21.35693359 67.8515625 C-21.36639008 66.54670898 -21.37584656 65.24185547 -21.3855896 63.89746094 C-21.38021959 62.48111669 -21.37406656 61.06477522 -21.3671875 59.6484375 C-21.36920992 58.18782404 -21.37212276 56.72721157 -21.37588501 55.26660156 C-21.38030049 52.21018835 -21.37390262 49.15403874 -21.35986328 46.09765625 C-21.34277153 42.18689999 -21.35261692 38.27676145 -21.37058067 34.36602783 C-21.3814397 31.3513527 -21.37796253 28.33682316 -21.3701973 25.32214355 C-21.36820113 23.88049241 -21.37063403 22.4388279 -21.37763596 20.99719238 C-21.38528443 18.97990178 -21.37155294 16.96256462 -21.35693359 14.9453125 C-21.35454681 13.79901367 -21.35216003 12.65271484 -21.34970093 11.47167969 C-20.92309197 8.0301009 -20.01779365 6.1702709 -17.96875 3.3984375 C-12.51284504 -0.59957452 -6.48013344 -0.03546746 0 0 Z M-5.96875 16.3984375 C-5.96875 32.8984375 -5.96875 49.3984375 -5.96875 66.3984375 C7.56125 66.3984375 21.09125 66.3984375 35.03125 66.3984375 C35.03125 49.8984375 35.03125 33.3984375 35.03125 16.3984375 C21.50125 16.3984375 7.97125 16.3984375 -5.96875 16.3984375 Z " fill="#000000" transform="translate(65.96875,312.6015625)"/>
<path d="M0 0 C0.66 -0.0103125 1.32 -0.020625 2 -0.03125 C5.06266217 0.78226964 6.16449142 1.91729324 8 4.5 C8.2906124 7.39449949 8.38186045 9.87949935 8.25 12.75 C8.23195313 13.49507812 8.21390625 14.24015625 8.1953125 15.0078125 C8.14835649 16.83909701 8.07661652 18.66971649 8 20.5 C8.58394531 20.7784375 9.16789062 21.056875 9.76953125 21.34375 C11.8775395 22.43651785 13.75487321 23.62494233 15.6875 25 C16.59048828 25.63421875 16.59048828 25.63421875 17.51171875 26.28125 C19 27.5 19 27.5 20 29.5 C20.26004123 33.01055666 20.38797265 35.63276702 18.9375 38.875 C15.87709671 41.44178985 13.9921129 41.62877784 10 41.5 C3.85472506 38.56527265 -4.89748068 32.70503863 -8 26.5 C-8.29338566 22.88144197 -8.27791549 19.25406781 -8.3125 15.625 C-8.34150391 14.61824219 -8.37050781 13.61148438 -8.40039062 12.57421875 C-8.46405758 5.19864739 -8.46405758 5.19864739 -6.23046875 1.8359375 C-3.90921982 0.44562728 -2.68208092 -0.04190751 0 0 Z " fill="#000000" transform="translate(256,164.5)"/>
</svg>
